<?xml version="1.0" encoding="UTF-8" standalone="no"?>
<svg
   xmlns:dc="http://purl.org/dc/elements/1.1/"
   xmlns:cc="http://creativecommons.org/ns#"
   xmlns:rdf="http://www.w3.org/1999/02/22-rdf-syntax-ns#"
   xmlns:svg="http://www.w3.org/2000/svg"
   xmlns="http://www.w3.org/2000/svg"
   xmlns:sodipodi="http://sodipodi.sourceforge.net/DTD/sodipodi-0.dtd"
   xmlns:inkscape="http://www.inkscape.org/namespaces/inkscape"
   sodipodi:docname="desenhando.svg"
   inkscape:version="1.0 (4035a4fb49, 2020-05-01)"
   id="svg8"
   version="1.1"
   viewBox="0 0 21.166666 21.166666"
   height="80"
   width="80">
  <defs
     id="defs2" />
  <sodipodi:namedview
     inkscape:window-maximized="1"
     inkscape:window-y="-8"
     inkscape:window-x="-8"
     inkscape:window-height="705"
     inkscape:window-width="1366"
     inkscape:pagecheckerboard="false"
     units="px"
     showgrid="false"
     inkscape:document-rotation="0"
     inkscape:current-layer="layer1"
     inkscape:document-units="px"
     inkscape:cy="40.865891"
     inkscape:cx="45.763573"
     inkscape:zoom="5.6"
     inkscape:pageshadow="2"
     inkscape:pageopacity="0.0"
     borderopacity="1.0"
     bordercolor="#666666"
     pagecolor="#ffffff"
     id="base" />
  <metadata
     id="metadata5">
    <rdf:RDF>
      <cc:Work
         rdf:about="">
        <dc:format>image/svg+xml</dc:format>
        <dc:type
           rdf:resource="http://purl.org/dc/dcmitype/StillImage" />
        <dc:title></dc:title>
      </cc:Work>
    </rdf:RDF>
  </metadata>
  <g
     id="layer1"
     inkscape:groupmode="layer"
     inkscape:label="Layer 1">
    <g
       style="fill:#000000"
       transform="matrix(0.91904113,-0.93859332,0.93859332,0.91904113,-10.523479,7.8624271)"
       id="g39">
      <path
         style="fill:#000000;stroke:none;stroke-width:0.264583px;stroke-linecap:butt;stroke-linejoin:miter;stroke-opacity:1"
         d="m 9.8746277,1.5591518 c 0,0 -1.1098784,2.8669135 -3.6380205,4.4884671 -2.5281421,1.6215536 -4.3221829,3.6452778 -4.3939731,6.6145821 0,4.544143 5.3861603,0.992184 5.3861603,0.992184 0,0 -0.2931301,2.787413 -3.1655504,4.564067 2.0102575,0 5.8113837,0 5.8113837,0 z"
         id="path20"
         sodipodi:nodetypes="czccccc" />
      <path
         sodipodi:nodetypes="czccccc"
         id="path20-5"
         d="m 9.8746277,1.5591518 c 0,0 1.1098783,2.8669136 3.6380213,4.488467 2.528142,1.6215537 4.322183,3.6452779 4.393973,6.6145822 0,4.544143 -5.38616,0.992184 -5.38616,0.992184 0,0 0.29313,2.787413 3.16555,4.564067 -2.010258,0 -5.8113843,0 -5.8113843,0 z"
         style="fill:#000000;stroke:none;stroke-width:0.264583px;stroke-linecap:butt;stroke-linejoin:miter;stroke-opacity:1" />
    </g>
  </g>
</svg>
